<?xml version="1.0" encoding="UTF-8"?>
<!-- Generated by Pixelmator Pro 3.2.2 -->
<svg width="146" height="209" viewBox="0 0 146 209" xmlns="http://www.w3.org/2000/svg" xmlns:xlink="http://www.w3.org/1999/xlink">
    <path id="Path-copy" fill="#f9fdfb" stroke="none" d="M 53.304073 5.241852 C 56.833862 -0.413956 62.55566 -0.413956 66.085449 5.241852 L 71.933792 14.600998 C 73.701027 17.433502 73.701027 22.025894 71.933792 24.858398 C 70.166557 27.690903 67.3013 27.690903 65.534058 24.858398 L 59.694759 15.484756 L 19.018517 80.680084 L 19.018517 171.852142 C 19.018517 175.852844 21.042004 179.096054 23.538099 179.096054 C 26.034197 179.096054 28.057682 182.339279 28.057682 186.339981 C 28.057682 190.340698 26.034197 193.583908 23.538099 193.583908 C 16.04981 193.583908 9.979352 183.854263 9.979352 171.852142 L 9.979352 95.167938 L 8.659634 97.297653 C 6.892397 100.130157 4.027141 100.130157 2.259905 97.297653 C 0.492668 94.465149 0.492668 89.872757 2.259905 87.040253 L 53.304073 5.241852 Z M 80.42157 19.729691 C 83.951363 14.073898 89.673149 14.073898 93.202942 19.729691 L 109.410172 45.706421 L 109.410172 26.973618 C 109.410172 22.972916 111.433662 19.729691 113.929756 19.729691 L 122.968918 19.729691 C 125.465012 19.729691 127.488503 22.972916 127.488503 26.973618 L 127.488503 74.682114 L 144.247116 101.528107 C 146.014359 104.360611 146.014359 108.953003 144.247116 111.785507 C 142.479874 114.618011 139.614624 114.618011 137.847382 111.785507 L 136.527664 109.655785 L 136.527664 186.339981 C 136.527664 198.342117 130.457214 208.071762 122.968918 208.071762 L 50.655598 208.071762 C 43.167305 208.071762 37.096848 198.342117 37.096848 186.339981 L 37.096848 109.655785 L 35.77713 111.785507 C 34.009892 114.618011 31.144638 114.618011 29.377399 111.785507 C 27.610165 108.953003 27.610165 104.360611 29.377399 101.528107 L 80.42157 19.729691 Z M 86.812256 29.97261 L 46.136013 95.167938 L 46.136013 186.339981 C 46.136013 190.340698 48.159496 193.583908 50.655598 193.583908 L 122.968918 193.583908 C 125.465012 193.583908 127.488503 190.340698 127.488503 186.339981 L 127.488503 95.167938 L 86.812256 29.97261 Z"/>
</svg>
