<?xml version="1.0" encoding="UTF-8"?>
<!-- Generated by Pixelmator Pro 3.2 -->
<svg width="467" height="220" viewBox="0 0 467 220" xmlns="http://www.w3.org/2000/svg" xmlns:xlink="http://www.w3.org/1999/xlink">
    <g id="Group-copy-3">
        <text id="KIEZ" xml:space="preserve" x="220" y="171" font-family="Corben" font-size="98.029646" fill="#032017">KIEZ</text>
        <path id="Path-copy" fill="#032017" stroke="none" d="M 53.304073 16.241852 C 56.833862 10.586044 62.55566 10.586044 66.085449 16.241852 L 71.933792 25.600998 C 73.701027 28.433502 73.701027 33.025894 71.933792 35.858398 C 70.166557 38.690903 67.3013 38.690903 65.534058 35.858398 L 59.694759 26.484756 L 19.018517 91.680084 L 19.018517 182.852142 C 19.018517 186.852844 21.042004 190.096054 23.538099 190.096054 C 26.034197 190.096054 28.057682 193.339279 28.057682 197.339981 C 28.057682 201.340698 26.034197 204.583908 23.538099 204.583908 C 16.04981 204.583908 9.979352 194.854263 9.979352 182.852142 L 9.979352 106.167938 L 8.659634 108.297653 C 6.892397 111.130157 4.027141 111.130157 2.259905 108.297653 C 0.492668 105.465149 0.492668 100.872757 2.259905 98.040253 L 53.304073 16.241852 Z M 80.42157 30.729691 C 83.951363 25.073898 89.673149 25.073898 93.202942 30.729691 L 109.410172 56.706421 L 109.410172 37.973618 C 109.410172 33.972916 111.433662 30.729691 113.929756 30.729691 L 122.968918 30.729691 C 125.465012 30.729691 127.488503 33.972916 127.488503 37.973618 L 127.488503 85.682114 L 144.247116 112.528107 C 146.014359 115.360611 146.014359 119.953003 144.247116 122.785507 C 142.479874 125.618011 139.614624 125.618011 137.847382 122.785507 L 136.527664 120.655785 L 136.527664 197.339981 C 136.527664 209.342117 130.457214 219.071762 122.968918 219.071762 L 50.655598 219.071762 C 43.167305 219.071762 37.096848 209.342117 37.096848 197.339981 L 37.096848 120.655785 L 35.77713 122.785507 C 34.009892 125.618011 31.144638 125.618011 29.377399 122.785507 C 27.610165 119.953003 27.610165 115.360611 29.377399 112.528107 L 80.42157 30.729691 Z M 86.812256 40.97261 L 46.136013 106.167938 L 46.136013 197.339981 C 46.136013 201.340698 48.159496 204.583908 50.655598 204.583908 L 122.968918 204.583908 C 125.465012 204.583908 127.488503 201.340698 127.488503 197.339981 L 127.488503 106.167938 L 86.812256 40.97261 Z"/>
    </g>
</svg>
